<?xml version="1.0" encoding="UTF-8" standalone="no"?>
<!-- Created with Inkscape (http://www.inkscape.org/) -->

<svg
   xmlns:dc="http://purl.org/dc/elements/1.1/"
   xmlns:cc="http://creativecommons.org/ns#"
   xmlns:rdf="http://www.w3.org/1999/02/22-rdf-syntax-ns#"
   xmlns:svg="http://www.w3.org/2000/svg"
   xmlns="http://www.w3.org/2000/svg"
   xmlns:sodipodi="http://sodipodi.sourceforge.net/DTD/sodipodi-0.dtd"
   xmlns:inkscape="http://www.inkscape.org/namespaces/inkscape"
   width="654.42194"
   height="169.18158"
   id="svg2"
   version="1.1"
   inkscape:version="0.48.3.1 r9886"
   sodipodi:docname="bpt-white.png">
  <defs
     id="defs4" />
  <sodipodi:namedview
     id="base"
     pagecolor="#ffffff"
     bordercolor="#666666"
     borderopacity="1.0"
     inkscape:pageopacity="0.0"
     inkscape:pageshadow="2"
     inkscape:zoom="0.35"
     inkscape:cx="71.138325"
     inkscape:cy="-74.307486"
     inkscape:document-units="px"
     inkscape:current-layer="text3072"
     showgrid="false"
     fit-margin-top="0"
     fit-margin-left="0"
     fit-margin-right="0"
     fit-margin-bottom="0"
     inkscape:window-width="1120"
     inkscape:window-height="679"
     inkscape:window-x="557"
     inkscape:window-y="284"
     inkscape:window-maximized="0" />
  <metadata
     id="metadata7">
    <rdf:RDF>
      <cc:Work
         rdf:about="">
        <dc:format>image/svg+xml</dc:format>
        <dc:type
           rdf:resource="http://purl.org/dc/dcmitype/StillImage" />
        <dc:title></dc:title>
      </cc:Work>
    </rdf:RDF>
  </metadata>
  <g
     inkscape:label="Layer 1"
     inkscape:groupmode="layer"
     id="layer1"
     transform="translate(-41.071431,-339.4016)">
    <g
       transform="scale(1.0292344,0.97159598)"
       style="font-size:236.45137024px;font-style:normal;font-weight:normal;line-height:125%;letter-spacing:0px;word-spacing:0px;fill:#000000;fill-opacity:1;stroke:none;font-family:Sans"
       id="text3072">
      <g
         id="g3133"
         style="fill:#ffffff">
        <path
           transform="matrix(0.28455592,0,0,0.30143676,27.709584,246.23139)"
           d="m 122.85714,409.50504 c 0,22.09139 -17.90861,40 -40,40 -22.09139,0 -40,-17.90861 -40,-40 0,-22.09139 17.90861,-40 40,-40 22.09139,0 40,17.90861 40,40 z"
           sodipodi:ry="40"
           sodipodi:rx="40"
           sodipodi:cy="409.50504"
           sodipodi:cx="82.85714"
           id="path2985"
           style="fill:#ffffff;fill-opacity:1"
           sodipodi:type="arc" />
        <path
           inkscape:transform-center-y="11.714991"
           inkscape:transform-center-x="18.409268"
           d="m 122.85714,409.50504 c 0,22.09139 -17.90861,40 -40,40 -22.09139,0 -40,-17.90861 -40,-40 0,-22.09139 17.90861,-40 40,-40 22.09139,0 40,17.90861 40,40 z"
           sodipodi:ry="40"
           sodipodi:rx="40"
           sodipodi:cy="409.50504"
           sodipodi:cx="82.85714"
           id="path2985-9"
           style="fill:#ffffff;fill-opacity:1"
           sodipodi:type="arc"
           transform="matrix(0.28455592,0,0,0.30143676,54.742397,246.23139)" />
        <path
           inkscape:transform-center-y="5.0207119"
           inkscape:transform-center-x="29.287474"
           d="m 122.85714,409.50504 c 0,22.09139 -17.90861,40 -40,40 -22.09139,0 -40,-17.90861 -40,-40 0,-22.09139 17.90861,-40 40,-40 22.09139,0 40,17.90861 40,40 z"
           sodipodi:ry="40"
           sodipodi:rx="40"
           sodipodi:cy="409.50504"
           sodipodi:cx="82.85714"
           id="path2985-1"
           style="fill:#ffffff;fill-opacity:1"
           sodipodi:type="arc"
           transform="matrix(0.28455592,0,0,0.30143676,27.709584,274.86788)" />
        <path
           inkscape:transform-center-y="4.1839269"
           inkscape:transform-center-x="26.777117"
           d="m 122.85714,409.50504 c 0,22.09139 -17.90861,40 -40,40 -22.09139,0 -40,-17.90861 -40,-40 0,-22.09139 17.90861,-40 40,-40 22.09139,0 40,17.90861 40,40 z"
           sodipodi:ry="40"
           sodipodi:rx="40"
           sodipodi:cy="409.50504"
           sodipodi:cx="82.85714"
           id="path2985-3"
           style="fill:#ffffff;fill-opacity:1"
           sodipodi:type="arc"
           transform="matrix(0.28455592,0,0,0.30143676,54.742397,274.86788)" />
        <path
           transform="matrix(0.28455592,0,0,0.30143676,81.775208,246.23139)"
           d="m 122.85714,409.50504 c 0,22.09139 -17.90861,40 -40,40 -22.09139,0 -40,-17.90861 -40,-40 0,-22.09139 17.90861,-40 40,-40 22.09139,0 40,17.90861 40,40 z"
           sodipodi:ry="40"
           sodipodi:rx="40"
           sodipodi:cy="409.50504"
           sodipodi:cx="82.85714"
           id="path2985-13"
           style="fill:#ffffff;fill-opacity:1"
           sodipodi:type="arc" />
        <path
           inkscape:transform-center-y="5.0207119"
           inkscape:transform-center-x="29.287473"
           d="m 122.85714,409.50504 c 0,22.09139 -17.90861,40 -40,40 -22.09139,0 -40,-17.90861 -40,-40 0,-22.09139 17.90861,-40 40,-40 22.09139,0 40,17.90861 40,40 z"
           sodipodi:ry="40"
           sodipodi:rx="40"
           sodipodi:cy="409.50504"
           sodipodi:cx="82.85714"
           id="path2985-1-2"
           style="fill:#ffffff;fill-opacity:1"
           sodipodi:type="arc"
           transform="matrix(0.28455592,0,0,0.30143676,81.775208,274.86788)" />
        <path
           transform="matrix(0.28455592,0,0,0.30143676,27.709584,303.50437)"
           d="m 122.85714,409.50504 c 0,22.09139 -17.90861,40 -40,40 -22.09139,0 -40,-17.90861 -40,-40 0,-22.09139 17.90861,-40 40,-40 22.09139,0 40,17.90861 40,40 z"
           sodipodi:ry="40"
           sodipodi:rx="40"
           sodipodi:cy="409.50504"
           sodipodi:cx="82.85714"
           id="path2985-8"
           style="fill:#ffffff;fill-opacity:1"
           sodipodi:type="arc" />
        <path
           inkscape:transform-center-y="11.714993"
           inkscape:transform-center-x="18.409268"
           d="m 122.85714,409.50504 c 0,22.09139 -17.90861,40 -40,40 -22.09139,0 -40,-17.90861 -40,-40 0,-22.09139 17.90861,-40 40,-40 22.09139,0 40,17.90861 40,40 z"
           sodipodi:ry="40"
           sodipodi:rx="40"
           sodipodi:cy="409.50504"
           sodipodi:cx="82.85714"
           id="path2985-9-1"
           style="fill:#ffffff;fill-opacity:1"
           sodipodi:type="arc"
           transform="matrix(0.28455592,0,0,0.30143676,54.742397,303.50437)" />
        <path
           sodipodi:nodetypes="ccccccccccsccccc"
           inkscape:connector-curvature="0"
           id="path3085"
           style="font-variant:normal;font-stretch:normal;font-family:Liberation Sans;-inkscape-font-specification:Liberation Sans;fill:#ffffff"
           d="m 104.33829,422.07744 c 0.87914,2e-5 1.54415,0.72138 1.99501,2.16408 0.90168,2.70512 2.26275,1.46945 2.64599,1.46943 0.29305,2e-5 1.60342,-1.59565 1.91904,-2.04651 8.20281,-10.60086 10.4708,-14.39112 15.8585,-20.65797 1.39759,-1.62302 3.61803,-2.43456 6.66131,-2.4346 0.72132,4e-5 1.20598,0.0677 1.454,0.20289 0.24792,0.13529 0.3719,0.30436 0.37194,0.5072 -4e-5,0.31564 -0.37199,0.93556 -1.11585,1.85976 -8.70145,10.45977 -16.77167,21.50559 -24.21067,33.13751 -0.5185,0.81154 -1.578,1.2173 -3.17849,1.2173 -1.62308,0 -2.54521,-0.4863 -3.16162,-0.96413 -0.6946,-0.68069 -1.38071,-1.30139 -2.41766,-4.41227 -1.172218,-3.44898 -1.758328,-5.61307 -1.75832,-6.49224 -8e-6,-0.94677 0.78898,-1.85974 2.36697,-2.73892 0.96931,-0.541 1.82593,-0.81151 2.56985,-0.81153" />
      </g>
      <g
         transform="scale(0.91871783,1.0884735)"
         style="font-size:112.51708983999999703px;fill:#ffffff;font-family:Sans"
         id="text3087">
        <path
           d="m 213.00512,381.30904 c -6e-5,3.77257 -0.69597,6.99571 -2.08772,9.66944 -1.39187,2.67376 -3.25983,4.87135 -5.60388,6.5928 -2.34416,1.68483 -5.07284,2.93013 -8.18605,3.73592 -3.07669,0.76916 -6.33646,1.15374 -9.77932,1.15374 l -31.97507,0 0,-74.11404 28.84349,0 c 3.80913,7e-5 7.21541,0.38465 10.21884,1.15374 3.00333,0.7326 5.54888,1.86803 7.63665,3.40628 2.08767,1.53838 3.68092,3.47959 4.77978,5.82363 1.13537,2.34417 1.70308,5.09117 1.70314,8.241 -6e-5,4.21212 -1.20874,7.7649 -3.62604,10.65836 -2.41741,2.85692 -6.13501,4.81644 -11.15281,5.87858 6.2631,0.65932 11.02456,2.52727 14.28439,5.60388 3.29634,3.07667 4.94454,7.14222 4.9446,12.19667 m -20.76731,-32.13989 c -5e-5,-3.18646 -0.82415,-5.439 -2.4723,-6.75762 -1.64824,-1.35512 -3.88247,-2.03271 -6.70268,-2.03278 l -11.48246,0 0,17.52586 11.59234,0 c 2.96672,4e-5 5.21926,-0.73249 6.75762,-2.1976 1.53827,-1.46502 2.30743,-3.6443 2.30748,-6.53786 m 4.45014,30.76639 c -5e-5,-1.90456 -0.31138,-3.49782 -0.93398,-4.77978 -0.62271,-1.2819 -1.46512,-2.30744 -2.52724,-3.07663 -1.02559,-0.80576 -2.23427,-1.37347 -3.62604,-1.70314 -1.35523,-0.32961 -2.78367,-0.49443 -4.28532,-0.49446 l -13.735,0 0,20.54755 14.11958,0 c 1.46503,10e-6 2.85684,-0.16481 4.17544,-0.49446 1.35514,-0.32963 2.52719,-0.87903 3.51616,-1.6482 1.0255,-0.80577 1.83128,-1.88626 2.41736,-3.24146 0.58597,-1.35517 0.87899,-3.0583 0.87904,-5.10942"
           style="font-variant:normal;font-weight:bold;font-stretch:normal;font-family:Liberation Mono;-inkscape-font-specification:Liberation Mono Bold;fill:#ffffff"
           id="path3092"
           inkscape:connector-curvature="0" />
        <path
           d="m 258.93495,392.02234 19.39381,0 0,10.4386 -56.53324,0 0,-10.4386 21.70129,0 0,-60.65374 -15.93259,0 0,-10.4386 31.37073,0 0,71.09234"
           style="font-variant:normal;font-weight:bold;font-stretch:normal;font-family:Liberation Mono;-inkscape-font-specification:Liberation Mono Bold;fill:#ffffff"
           id="path3094"
           inkscape:connector-curvature="0" />
        <path
           d="m 305.63393,343.01587 0,33.34857 c -2e-5,2.30751 0.18311,4.43185 0.5494,6.37304 0.36625,1.90461 0.93396,3.5528 1.70314,4.9446 0.76914,1.3552 1.73974,2.41737 2.91182,3.18652 1.20865,0.76917 2.63709,1.15375 4.28532,1.15374 1.57491,1e-5 3.05829,-0.40288 4.45014,-1.20868 1.39178,-0.8424 2.60045,-2.01445 3.62604,-3.51616 1.0255,-1.5383 1.83129,-3.35132 2.41736,-5.43906 0.58598,-2.12432 0.87899,-4.45011 0.87904,-6.97738 l 0,-31.86519 15.43813,0 0,46.14959 c -5e-5,1.24532 -5e-5,2.56388 0,3.95568 0.0366,1.35519 0.0732,2.65544 0.10988,3.90074 0.0732,1.20868 0.12814,2.30748 0.16482,3.2964 0.0732,0.95229 0.12814,1.66651 0.16482,2.14266 l -14.72391,0 c -0.0367,-0.43952 -0.10993,-1.13543 -0.21976,-2.08772 -0.0733,-0.98892 -0.14655,-2.0694 -0.21976,-3.24146 -0.0367,-1.17205 -0.0916,-2.3441 -0.16482,-3.51616 -0.0367,-1.17204 -0.055,-2.16096 -0.0549,-2.96676 l -0.2747,0 c -2.05114,4.50509 -4.615,7.78317 -7.6916,9.83426 -3.07667,2.05109 -6.51957,3.07664 -10.32872,3.07664 -3.44292,0 -6.33643,-0.58603 -8.68051,-1.75808 -2.34413,-1.17205 -4.24871,-2.76531 -5.71376,-4.77978 -1.42845,-2.05109 -2.47231,-4.46844 -3.13158,-7.25208 -0.62266,-2.78361 -0.93399,-5.78699 -0.93398,-9.01016 l 0,-37.74377 15.43813,0"
           style="font-variant:normal;font-weight:bold;font-stretch:normal;font-family:Liberation Mono;-inkscape-font-specification:Liberation Mono Bold;fill:#ffffff"
           id="path3096"
           inkscape:connector-curvature="0" />
        <path
           d="m 384.63762,403.55974 c -4.28534,0 -8.20439,-0.62266 -11.75715,-1.86796 -3.55281,-1.28193 -6.59282,-3.20483 -9.12004,-5.7687 -2.52725,-2.60048 -4.50509,-5.84194 -5.93352,-9.72438 -1.39182,-3.91903 -2.08772,-8.49736 -2.08772,-13.73499 0,-5.6771 0.80578,-10.45687 2.41736,-14.33934 1.64819,-3.88238 3.82748,-7.01395 6.53786,-9.39474 2.71036,-2.4173 5.8053,-4.15707 9.28486,-5.2193 3.51613,-1.06211 7.14216,-1.5932 10.87811,-1.59326 4.68818,6e-5 8.73542,0.82416 12.14174,2.4723 3.44286,1.61163 6.29973,3.88248 8.57064,6.81256 2.27079,2.93018 3.95562,6.44634 5.05448,10.54848 1.09874,4.06559 1.64813,8.57067 1.6482,13.51523 l 0,0.43952 -40.32595,0 c -2e-5,2.49064 0.27468,4.81643 0.8241,6.97738 0.586,2.12437 1.42841,3.97401 2.52724,5.54894 1.1354,1.53833 2.54552,2.76533 4.23038,3.68098 1.68479,0.87905 3.64432,1.31857 5.87857,1.31856 2.71034,10e-6 5.10938,-0.5677 7.19714,-1.70314 2.08768,-1.17204 3.4978,-2.96674 4.23038,-5.38412 l 14.5591,1.26362 c -0.65934,1.68484 -1.64826,3.47955 -2.96676,5.38412 -1.28199,1.90459 -2.98513,3.66267 -5.10942,5.27424 -2.1244,1.57495 -4.72489,2.89351 -7.80148,3.95568 -3.04005,1.02554 -6.66609,1.53832 -10.87812,1.53832 m 0,-51.91829 c -1.57497,5e-5 -3.11329,0.27475 -4.61495,0.8241 -1.4651,0.51282 -2.78366,1.35524 -3.95568,2.52724 -1.13545,1.13547 -2.06943,2.61885 -2.80194,4.45014 -0.73256,1.83137 -1.13545,4.02897 -1.20868,6.5928 l 25.27239,0 c -0.14655,-2.3807 -0.58607,-4.46841 -1.31856,-6.26316 -0.69595,-1.79466 -1.61162,-3.29635 -2.747,-4.50508 -1.09884,-1.20863 -2.39908,-2.10598 -3.90074,-2.69206 -1.4651,-0.6226 -3.04005,-0.93393 -4.72484,-0.93398"
           style="font-variant:normal;font-weight:bold;font-stretch:normal;font-family:Liberation Mono;-inkscape-font-specification:Liberation Mono Bold;fill:#ffffff"
           id="path3098"
           inkscape:connector-curvature="0" />
        <path
           d="m 480.45297,351.75133 c -7e-5,3.33307 -0.56778,6.50128 -1.70314,9.50462 -1.09886,2.9668 -2.802,5.56729 -5.10942,7.80148 -2.30754,2.23425 -5.23767,4.01064 -8.7904,5.32918 -3.55283,1.28195 -7.76489,1.92292 -12.6362,1.92289 l -10.82317,0 0,26.15144 -16.2073,0 0,-74.11404 26.37119,0 c 4.94456,7e-5 9.22988,0.54947 12.85596,1.6482 3.62599,1.06224 6.62937,2.60056 9.01016,4.61496 2.38067,2.01453 4.13875,4.46851 5.27424,7.36195 1.17199,2.89357 1.75801,6.15334 1.75808,9.77932 m -16.31718,0.2747 c -5e-5,-3.99225 -1.20873,-6.83081 -3.62604,-8.5157 -2.38077,-1.72139 -5.97018,-2.58211 -10.76824,-2.58218 l -8.35087,0 0,22.90998 8.79039,0 c 4.83468,4e-5 8.36915,-0.98888 10.60342,-2.96676 2.23418,-2.01442 3.35129,-4.96287 3.35134,-8.84534"
           style="font-variant:normal;font-weight:bold;font-stretch:normal;font-family:Liberation Mono;-inkscape-font-specification:Liberation Mono Bold;fill:#ffffff"
           id="path3100"
           inkscape:connector-curvature="0" />
        <path
           d="m 538.2226,355.87183 c -1.72151,-0.29297 -3.53452,-0.53104 -5.43905,-0.71422 -1.86802,-0.21971 -3.93742,-0.32959 -6.20822,-0.32964 -3.07669,5e-5 -5.78706,0.6227 -8.13112,1.86796 -2.30752,1.24535 -4.24873,2.94849 -5.82364,5.10942 -1.53835,2.12438 -2.7104,4.61499 -3.51616,7.47184 -0.76919,2.85691 -1.15377,5.89692 -1.15374,9.12003 l 0,24.06372 -15.38319,0 0,-38.51293 c -2e-5,-2.05105 -0.1099,-4.13877 -0.32964,-6.26316 -0.21978,-2.1243 -0.47616,-4.12045 -0.76916,-5.98846 -0.29303,-1.90453 -0.60435,-3.60767 -0.93398,-5.10942 -0.32965,-1.50163 -0.60435,-2.692 -0.8241,-3.5711 l 14.88873,0 c 0.21974,0.80585 0.45781,1.72151 0.71422,2.747 0.25636,0.98898 0.49444,2.05115 0.71422,3.18652 0.21974,1.09885 0.42118,2.21597 0.60434,3.35134 0.21974,1.13548 0.38455,2.21596 0.49446,3.24146 l 0.21976,0 c 0.76913,-2.08767 1.66649,-3.97394 2.69206,-5.65882 1.06214,-1.68477 2.36239,-3.11321 3.90074,-4.28532 1.53828,-1.17199 3.36962,-2.06934 5.494,-2.69206 2.1243,-0.65922 4.61491,-0.98886 7.47184,-0.98892 2.05104,6e-5 4.0655,0.0916 6.0434,0.2747 1.97778,0.1832 3.73586,0.40296 5.27423,0.65928 l 0,13.02078"
           style="font-variant:normal;font-weight:bold;font-stretch:normal;font-family:Liberation Mono;-inkscape-font-specification:Liberation Mono Bold;fill:#ffffff"
           id="path3102"
           inkscape:connector-curvature="0" />
        <path
           d="m 579.34556,392.02234 19.39381,0 0,10.4386 -56.53324,0 0,-10.4386 21.70129,0 0,-38.56787 -15.93259,0 0,-10.4386 31.37073,0 0,49.00647 m -15.43814,-59.71976 0,-11.37258 15.43814,0 0,11.37258 -15.43814,0"
           style="font-variant:normal;font-weight:bold;font-stretch:normal;font-family:Liberation Mono;-inkscape-font-specification:Liberation Mono Bold;fill:#ffffff"
           id="path3104"
           inkscape:connector-curvature="0" />
        <path
           d="m 648.46007,402.46094 0,-34.00785 c -5e-5,-5.16432 -0.71427,-8.95518 -2.14266,-11.37258 -1.39186,-2.41731 -3.80922,-3.62599 -7.25208,-3.62604 -1.868,5e-5 -3.57113,0.42126 -5.10942,1.26362 -1.53835,0.80583 -2.85691,1.97789 -3.95568,3.51616 -1.09883,1.50174 -1.95955,3.31475 -2.58218,5.43906 -0.62268,2.08775 -0.934,4.39523 -0.93398,6.92244 l 0,31.86519 -15.43813,0 0,-46.14959 c -10e-6,-1.28189 -0.0183,-2.60044 -0.0549,-3.95568 -10e-6,-1.35513 -0.0366,-2.63707 -0.10988,-3.8458 -0.0366,-1.24525 -0.0733,-2.34405 -0.10988,-3.2964 -0.0366,-0.98886 -0.0916,-1.72139 -0.16482,-2.1976 l 14.72391,0 c 0.0732,0.43958 0.14649,1.1538 0.21976,2.14266 0.0732,0.95235 0.14649,2.01452 0.21976,3.18652 0.0732,1.17211 0.12817,2.34416 0.16482,3.51616 0.0732,1.1721 0.10986,2.16102 0.10988,2.96676 l 0.21976,0 c 2.0877,-4.54165 4.7065,-7.83805 7.85642,-9.8892 3.14986,-2.05103 6.90409,-3.07658 11.2627,-3.07664 3.2231,6e-5 5.98841,0.53115 8.29593,1.59326 2.34406,1.02561 4.26695,2.5273 5.7687,4.50508 1.50164,1.94127 2.60044,4.322 3.2964,7.1422 0.73247,2.8203 1.09874,6.02513 1.0988,9.6145 l 0,37.74377 -15.38319,0"
           style="font-variant:normal;font-weight:bold;font-stretch:normal;font-family:Liberation Mono;-inkscape-font-specification:Liberation Mono Bold;fill:#ffffff"
           id="path3106"
           inkscape:connector-curvature="0" />
        <path
           d="m 688.67614,353.45447 -9.17498,0 0,-10.4386 9.94414,0 4.83472,-15.49307 9.66944,0 0,15.49307 21.15189,0 0,10.4386 -21.15189,0 0,29.11819 c -4e-5,1.31858 0.0366,2.5822 0.10988,3.79086 0.10984,1.2087 0.4578,2.28918 1.04386,3.24146 0.62261,0.91568 1.57491,1.66653 2.85688,2.25254 1.31852,0.54941 3.16816,0.82411 5.54893,0.8241 2.34407,10e-6 4.68817,-0.12818 7.03232,-0.38458 2.34406,-0.25638 4.66985,-0.62264 6.97738,-1.0988 l 0,10.21884 c -1.35524,0.21976 -2.71043,0.43952 -4.06556,0.65928 -1.31861,0.21976 -2.69211,0.40289 -4.1205,0.5494 -1.39186,0.18313 -2.87524,0.31132 -4.45014,0.38458 -1.57498,0.10988 -3.29644,0.16482 -5.16435,0.16482 -3.14993,0 -5.8603,-0.25639 -8.13112,-0.76916 -2.27088,-0.5494 -4.19378,-1.28193 -5.7687,-2.1976 -1.53834,-0.91567 -2.80196,-1.99615 -3.79086,-3.24146 -0.95231,-1.2453 -1.68485,-2.56386 -2.1976,-3.95568 -0.51279,-1.42843 -0.86074,-2.91181 -1.04386,-4.45014 -0.14652,-1.5383 -0.21978,-3.05831 -0.21976,-4.56002 l 0.10988,-30.54663"
           style="font-variant:normal;font-weight:bold;font-stretch:normal;font-family:Liberation Mono;-inkscape-font-specification:Liberation Mono Bold;fill:#ffffff"
           id="path3108"
           inkscape:connector-curvature="0" />
        <g
           transform="scale(1.3569662,0.73693804)"
           style="font-size:112.22692107999999678px;font-style:italic;font-variant:normal;font-weight:normal;font-stretch:normal;line-height:125%;letter-spacing:0px;word-spacing:0px;fill:#ffffff;fill-opacity:1;stroke:none;font-family:Liberation Serif;-inkscape-font-specification:Liberation Serif Italic"
           id="text3110">
          <path
             d="m 281.30493,628.34967 0.54798,-2.90431 11.89124,-1.47955 11.34324,-64.38801 -2.79471,0 c -2.37462,7e-5 -4.42042,0.0366 -6.13741,0.1096 -1.71703,0.0366 -3.19659,0.10966 -4.43866,0.21919 -1.24211,0.10967 -2.30155,0.23753 -3.1783,0.38359 -0.87679,0.10966 -1.66223,0.23753 -2.35633,0.38359 l -3.50709,11.45284 -3.67149,0 3.06871,-17.26146 58.63418,0 -3.0687,17.26146 -3.72629,0 0.54798,-11.45284 c -1.27868,-0.25566 -3.21489,-0.47485 -5.80862,-0.65758 -2.59384,-0.21913 -6.02786,-0.32872 -10.30208,-0.32879 l -2.68511,0 -11.34325,64.27841 11.45284,1.47955 -0.54798,2.90431 -33.92015,0"
             style="font-family:Liberation Serif;-inkscape-font-specification:Liberation Serif Italic;fill:#ffffff"
             id="path3115"
             inkscape:connector-curvature="0" />
          <path
             d="m 336.81561,609.71825 c -10e-6,4.93186 0.94983,8.71294 2.84951,11.34325 1.93619,2.59379 4.62131,3.89068 8.05535,3.89068 2.5207,0 4.93182,-0.74891 7.23338,-2.24673 2.33803,-1.53435 4.38383,-3.61668 6.13741,-6.24701 1.79004,-2.66684 3.21479,-5.8086 4.27427,-9.42531 1.09592,-3.65319 1.6439,-7.61693 1.64395,-11.89123 -5e-5,-5.04141 -0.96815,-8.85902 -2.90431,-11.45285 -1.89972,-2.63027 -4.63963,-3.94542 -8.21975,-3.94547 -2.48422,5e-5 -4.87707,0.74896 -7.17858,2.24673 -2.30155,1.49786 -4.32908,3.5802 -6.08261,6.247 -1.75356,2.63036 -3.16005,5.79039 -4.21947,9.48011 -1.05944,3.65325 -1.58916,7.65352 -1.58915,12.00083 m 10.41168,19.72739 c -2.95913,0 -5.68078,-0.49319 -8.16495,-1.47956 -2.44767,-0.98637 -4.56653,-2.41112 -6.3566,-4.27427 -1.75355,-1.86313 -3.12351,-4.12813 -4.10987,-6.79498 -0.94984,-2.66684 -1.42476,-5.68074 -1.42476,-9.04172 0,-4.27425 0.67584,-8.36585 2.02754,-12.27482 1.38822,-3.90891 3.34269,-7.34294 5.86342,-10.30208 2.55724,-2.9956 5.6442,-5.37019 9.26091,-7.12378 3.61666,-1.79003 7.69,-2.68507 12.22002,-2.68512 2.95907,5e-5 5.66245,0.49324 8.11015,1.47955 2.48415,0.98642 4.60301,2.41118 6.3566,4.27427 1.79003,1.86319 3.15999,4.12818 4.10987,6.79499 0.98632,2.66689 1.47951,5.68079 1.47956,9.04172 -5e-5,4.27429 -0.69416,8.3659 -2.08234,12.27482 -1.35174,3.90896 -3.30621,7.36125 -5.86341,10.35688 -2.52077,2.95911 -5.58947,5.3337 -9.20612,7.12378 -3.61672,1.75354 -7.69006,2.63032 -12.22002,2.63032"
             style="font-family:Liberation Serif;-inkscape-font-specification:Liberation Serif Italic;fill:#ffffff"
             id="path3117"
             inkscape:connector-curvature="0" />
          <path
             d="m 422.84895,576.78447 c 0.0365,-0.43834 0.10955,-1.05938 0.21919,-1.86314 0.10956,-0.84019 0.23742,-1.6987 0.38359,-2.57552 0.14609,-0.91325 0.27395,-1.79002 0.38359,-2.63032 0.14608,-0.84018 0.27395,-1.53429 0.38359,-2.08234 l 2.35632,-13.37078 -8.43893,-1.31516 0.43838,-2.46593 17.75465,0 -13.15159,74.03251 6.19221,1.36996 -0.43839,2.46592 -15.61752,0 1.58916,-8.54853 c -3.06874,3.21483 -6.00958,5.64422 -8.82253,7.28817 -2.813,1.60742 -5.51638,2.41112 -8.11015,2.41112 -2.19195,0 -4.18295,-0.42012 -5.97301,-1.26036 -1.79009,-0.84024 -3.32444,-2.0458 -4.60306,-3.61668 -1.27863,-1.60742 -2.28327,-3.56189 -3.01391,-5.86342 -0.69411,-2.30152 -1.04117,-4.8953 -1.04117,-7.78136 0,-3.14175 0.34706,-6.19219 1.04117,-9.15132 0.69411,-2.99561 1.68048,-5.80859 2.95911,-8.43894 1.27862,-2.63028 2.81297,-5.02313 4.60306,-7.17857 1.82659,-2.19189 3.87239,-4.0733 6.13741,-5.64423 2.26497,-1.60737 4.71263,-2.84946 7.34297,-3.72628 2.66682,-0.87672 5.46153,-1.31511 8.38414,-1.31516 1.82657,5e-5 3.47052,0.10965 4.93185,0.32879 1.49778,0.21924 2.86773,0.52977 4.10987,0.93157 m -1.26036,5.69902 c -1.27867,-0.84019 -2.59383,-1.49777 -3.94548,-1.97274 -1.35173,-0.47487 -2.99567,-0.71233 -4.93185,-0.71237 -1.97277,4e-5 -3.81764,0.42016 -5.53462,1.26036 -1.71704,0.84028 -3.30619,1.99105 -4.76746,3.45229 -1.46131,1.4248 -2.77646,3.10528 -3.94547,5.04144 -1.13252,1.93625 -2.10062,4.01858 -2.90431,6.24701 -0.80373,2.22849 -1.42477,4.53002 -1.86315,6.90459 -0.40186,2.37461 -0.60279,4.73094 -0.60278,7.06898 -1e-5,2.30154 0.25571,4.27428 0.76718,5.91821 0.51143,1.60743 1.16901,2.94085 1.97274,4.00028 0.84022,1.02291 1.79006,1.77182 2.84951,2.24673 1.09594,0.47492 2.21018,0.71238 3.34269,0.71238 2.04578,0 4.25598,-0.65758 6.6306,-1.97274 2.41109,-1.35168 4.73089,-3.23309 6.95938,-5.64423 l 5.97302,-32.55019"
             style="font-family:Liberation Serif;-inkscape-font-specification:Liberation Serif Italic;fill:#ffffff"
             id="path3119"
             inkscape:connector-curvature="0" />
          <path
             d="m 479.29119,624.51379 6.19221,1.36996 -0.43839,2.46592 -15.61752,0 1.58915,-8.54853 c -3.06873,3.21483 -6.00957,5.64422 -8.82252,7.28817 -2.813,1.60742 -5.51638,2.41112 -8.11015,2.41112 -2.08235,0 -4.01856,-0.38358 -5.80862,-1.15076 -1.79009,-0.80371 -3.34271,-1.97274 -4.65786,-3.50709 -1.31516,-1.53435 -2.35633,-3.43402 -3.1235,-5.69902 -0.73065,-2.30152 -1.09597,-4.9501 -1.09597,-7.94576 0,-3.14175 0.34706,-6.19218 1.04117,-9.15131 0.69411,-2.99562 1.68048,-5.80859 2.95911,-8.43894 1.31515,-2.66682 2.88603,-5.0962 4.71265,-7.28818 1.8266,-2.22842 3.8724,-4.12809 6.13741,-5.69902 2.26498,-1.60737 4.7309,-2.84946 7.39778,-3.72628 2.66682,-0.91326 5.46153,-1.36991 8.38414,-1.36996 2.41108,5e-5 4.62128,0.20098 6.63059,0.60278 2.04576,0.40191 4.00023,0.96815 5.86342,1.69875 0.10955,-0.073 0.23741,-0.16435 0.38359,-0.27399 0.10955,-0.073 0.23741,-0.16435 0.38358,-0.274 0.14609,-0.10954 0.31048,-0.2374 0.49319,-0.38358 0.36527,-0.25568 0.76713,-0.5662 1.20556,-0.93158 l 2.95911,0 -8.65813,48.5513 m -1.58915,-42.0303 c -0.69416,-0.47487 -1.35173,-0.87672 -1.97274,-1.20556 -0.62109,-0.32874 -1.27867,-0.60273 -1.97274,-0.82197 -0.65762,-0.21915 -1.36999,-0.36528 -2.13713,-0.43839 -0.73068,-0.10955 -1.57092,-0.16435 -2.52073,-0.1644 -3.06873,5e-5 -5.84518,0.91336 -8.32934,2.73992 -2.44768,1.79012 -4.53001,4.12818 -6.247,7.01418 -1.71703,2.84955 -3.03219,6.04611 -3.94548,9.5897 -0.91332,3.54365 -1.36997,7.06901 -1.36996,10.57608 -1e-5,2.30154 0.25571,4.27428 0.76718,5.91821 0.51143,1.60743 1.16901,2.94085 1.97274,4.00028 0.84022,1.02291 1.79006,1.77182 2.84951,2.24673 1.09594,0.47492 2.22844,0.71238 3.39749,0.71238 1.20554,0 2.4111,-0.20092 3.61669,-0.60278 1.20554,-0.43838 2.37456,-1.00463 3.50709,-1.69875 1.169,-0.73064 2.28323,-1.55261 3.3427,-2.46593 1.09593,-0.91329 2.11883,-1.86313 3.0687,-2.84951 l 5.97302,-32.55019"
             style="font-family:Liberation Serif;-inkscape-font-specification:Liberation Serif Italic;fill:#ffffff"
             id="path3121"
             inkscape:connector-curvature="0" />
          <path
             d="m 495.0183,576.83927 14.02837,0 7.94575,40.11235 12.8776,-22.24811 c 1.20553,-2.11883 2.0823,-4.05503 2.63032,-5.80862 0.58448,-1.79003 0.87673,-3.37918 0.87678,-4.76745 -5e-5,-1.35164 -0.38363,-2.42934 -1.15077,-3.2331 -0.76721,-0.80366 -1.58919,-1.33338 -2.46592,-1.58915 l 0.43838,-2.46592 10.41168,0 c 0.32874,0.29231 0.63927,0.74896 0.93157,1.36995 0.32874,0.6211 0.49314,1.31521 0.49319,2.08234 -5e-5,1.16908 -0.31058,2.72169 -0.93157,4.65786 -0.6211,1.89971 -1.82666,4.36563 -3.61669,7.39777 l -21.70013,36.55046 c -2.15542,3.65322 -4.20122,6.94111 -6.13741,9.8637 -1.89969,2.92256 -3.81763,5.40675 -5.75382,7.45257 -1.89969,2.04578 -3.90895,3.61666 -6.02781,4.71265 -2.08234,1.09594 -4.38387,1.64393 -6.90459,1.64395 -0.94983,-2e-5 -1.77181,-0.0183 -2.46592,-0.0548 -0.73064,-0.0366 -1.38822,-0.10962 -1.97274,-0.21919 -0.62104,-0.0731 -1.22382,-0.16442 -1.80835,-0.27399 -0.5845,-0.10962 -1.22382,-0.25575 -1.91794,-0.43839 l 2.02754,-11.12406 2.46592,0 0.87678,5.26064 c 0.9133,0.84022 2.41112,1.26034 4.49346,1.26036 1.57088,-2e-5 3.08696,-0.45667 4.54826,-1.36995 1.49781,-0.91333 2.9043,-2.10062 4.21947,-3.56189 1.35168,-1.42477 2.59377,-3.01392 3.72628,-4.76746 1.16902,-1.75355 2.21018,-3.45229 3.1235,-5.09624 l 2.46593,-4.49346 -10.02809,-47.01694 -6.13741,-1.36996 0.43838,-2.46592"
             style="font-family:Liberation Serif;-inkscape-font-specification:Liberation Serif Italic;fill:#ffffff"
             id="path3123"
             inkscape:connector-curvature="0" />
        </g>
      </g>
    </g>
    <flowRoot
       xml:space="preserve"
       id="flowRoot3076"
       style="font-size:144px;font-style:normal;font-weight:normal;line-height:125%;letter-spacing:0px;word-spacing:0px;fill:#000000;fill-opacity:1;stroke:none;font-family:Sans"><flowRegion
         id="flowRegion3078"><rect
           id="rect3080"
           width="7660"
           height="362.85715"
           x="-7391.4287"
           y="606.64789" /></flowRegion><flowPara
         id="flowPara3082" /></flowRoot>  </g>
</svg>
