<?xml version="1.0" encoding="UTF-8" standalone="no"?>
<!-- Created with Inkscape (http://www.inkscape.org/) -->

<svg
   xmlns:dc="http://purl.org/dc/elements/1.1/"
   xmlns:cc="http://creativecommons.org/ns#"
   xmlns:rdf="http://www.w3.org/1999/02/22-rdf-syntax-ns#"
   xmlns:svg="http://www.w3.org/2000/svg"
   xmlns="http://www.w3.org/2000/svg"
   xmlns:sodipodi="http://sodipodi.sourceforge.net/DTD/sodipodi-0.dtd"
   xmlns:inkscape="http://www.inkscape.org/namespaces/inkscape"
   width="647.18622"
   height="68.146019"
   id="svg2"
   version="1.1"
   inkscape:version="0.48.3.1 r9886"
   sodipodi:docname="bpt-color.svg">
  <defs
     id="defs4" />
  <sodipodi:namedview
     id="base"
     pagecolor="#ffffff"
     bordercolor="#666666"
     borderopacity="1.0"
     inkscape:pageopacity="0.0"
     inkscape:pageshadow="2"
     inkscape:zoom="0.35"
     inkscape:cx="258.08193"
     inkscape:cy="41.51513"
     inkscape:document-units="px"
     inkscape:current-layer="text3087"
     showgrid="false"
     fit-margin-top="0"
     fit-margin-left="0"
     fit-margin-right="0"
     fit-margin-bottom="0"
     inkscape:window-width="1120"
     inkscape:window-height="679"
     inkscape:window-x="710"
     inkscape:window-y="281"
     inkscape:window-maximized="0" />
  <metadata
     id="metadata7">
    <rdf:RDF>
      <cc:Work
         rdf:about="">
        <dc:format>image/svg+xml</dc:format>
        <dc:type
           rdf:resource="http://purl.org/dc/dcmitype/StillImage" />
        <dc:title></dc:title>
      </cc:Work>
    </rdf:RDF>
  </metadata>
  <g
     inkscape:label="Layer 1"
     inkscape:groupmode="layer"
     id="layer1"
     transform="translate(-41.071431,-339.4016)">
    <g
       transform="scale(1.0292344,0.97159598)"
       style="font-size:236.45137024px;font-style:normal;font-weight:normal;line-height:125%;letter-spacing:0px;word-spacing:0px;fill:#000000;fill-opacity:1;stroke:none;font-family:Sans"
       id="text3072">
      <g
         id="g3133"
         transform="matrix(0.64525456,0,0,0.64525456,14.156059,123.92102)">
        <path
           transform="matrix(0.28455592,0,0,0.30143676,27.709584,246.23139)"
           d="m 122.85714,409.50504 c 0,22.09139 -17.90861,40 -40,40 -22.09139,0 -40,-17.90861 -40,-40 0,-22.09139 17.90861,-40 40,-40 22.09139,0 40,17.90861 40,40 z"
           sodipodi:ry="40"
           sodipodi:rx="40"
           sodipodi:cy="409.50504"
           sodipodi:cx="82.85714"
           id="path2985"
           style="fill:#7ba29e;fill-opacity:1;stroke:none"
           sodipodi:type="arc" />
        <path
           inkscape:transform-center-y="11.714991"
           inkscape:transform-center-x="18.409268"
           d="m 122.85714,409.50504 c 0,22.09139 -17.90861,40 -40,40 -22.09139,0 -40,-17.90861 -40,-40 0,-22.09139 17.90861,-40 40,-40 22.09139,0 40,17.90861 40,40 z"
           sodipodi:ry="40"
           sodipodi:rx="40"
           sodipodi:cy="409.50504"
           sodipodi:cx="82.85714"
           id="path2985-9"
           style="fill:#7ba29e;fill-opacity:1;stroke:none"
           sodipodi:type="arc"
           transform="matrix(0.28455592,0,0,0.30143676,54.742397,246.23139)" />
        <path
           inkscape:transform-center-y="5.0207119"
           inkscape:transform-center-x="29.287474"
           d="m 122.85714,409.50504 c 0,22.09139 -17.90861,40 -40,40 -22.09139,0 -40,-17.90861 -40,-40 0,-22.09139 17.90861,-40 40,-40 22.09139,0 40,17.90861 40,40 z"
           sodipodi:ry="40"
           sodipodi:rx="40"
           sodipodi:cy="409.50504"
           sodipodi:cx="82.85714"
           id="path2985-1"
           style="fill:#7ba29e;fill-opacity:1;stroke:none"
           sodipodi:type="arc"
           transform="matrix(0.28455592,0,0,0.30143676,27.709584,274.86788)" />
        <path
           inkscape:transform-center-y="4.1839269"
           inkscape:transform-center-x="26.777117"
           d="m 122.85714,409.50504 c 0,22.09139 -17.90861,40 -40,40 -22.09139,0 -40,-17.90861 -40,-40 0,-22.09139 17.90861,-40 40,-40 22.09139,0 40,17.90861 40,40 z"
           sodipodi:ry="40"
           sodipodi:rx="40"
           sodipodi:cy="409.50504"
           sodipodi:cx="82.85714"
           id="path2985-3"
           style="fill:#7ba29e;fill-opacity:1;stroke:none"
           sodipodi:type="arc"
           transform="matrix(0.28455592,0,0,0.30143676,54.742397,274.86788)" />
        <path
           transform="matrix(0.28455592,0,0,0.30143676,81.775208,246.23139)"
           d="m 122.85714,409.50504 c 0,22.09139 -17.90861,40 -40,40 -22.09139,0 -40,-17.90861 -40,-40 0,-22.09139 17.90861,-40 40,-40 22.09139,0 40,17.90861 40,40 z"
           sodipodi:ry="40"
           sodipodi:rx="40"
           sodipodi:cy="409.50504"
           sodipodi:cx="82.85714"
           id="path2985-13"
           style="fill:#7ba29e;fill-opacity:1;stroke:none"
           sodipodi:type="arc" />
        <path
           inkscape:transform-center-y="5.0207119"
           inkscape:transform-center-x="29.287473"
           d="m 122.85714,409.50504 c 0,22.09139 -17.90861,40 -40,40 -22.09139,0 -40,-17.90861 -40,-40 0,-22.09139 17.90861,-40 40,-40 22.09139,0 40,17.90861 40,40 z"
           sodipodi:ry="40"
           sodipodi:rx="40"
           sodipodi:cy="409.50504"
           sodipodi:cx="82.85714"
           id="path2985-1-2"
           style="fill:#7ba29e;fill-opacity:1;stroke:none"
           sodipodi:type="arc"
           transform="matrix(0.28455592,0,0,0.30143676,81.775208,274.86788)" />
        <path
           transform="matrix(0.28455592,0,0,0.30143676,27.709584,303.50437)"
           d="m 122.85714,409.50504 c 0,22.09139 -17.90861,40 -40,40 -22.09139,0 -40,-17.90861 -40,-40 0,-22.09139 17.90861,-40 40,-40 22.09139,0 40,17.90861 40,40 z"
           sodipodi:ry="40"
           sodipodi:rx="40"
           sodipodi:cy="409.50504"
           sodipodi:cx="82.85714"
           id="path2985-8"
           style="fill:#7ba29e;fill-opacity:1;stroke:none"
           sodipodi:type="arc" />
        <path
           inkscape:transform-center-y="11.714993"
           inkscape:transform-center-x="18.409268"
           d="m 122.85714,409.50504 c 0,22.09139 -17.90861,40 -40,40 -22.09139,0 -40,-17.90861 -40,-40 0,-22.09139 17.90861,-40 40,-40 22.09139,0 40,17.90861 40,40 z"
           sodipodi:ry="40"
           sodipodi:rx="40"
           sodipodi:cy="409.50504"
           sodipodi:cx="82.85714"
           id="path2985-9-1"
           style="fill:#7ba29e;fill-opacity:1;stroke:none"
           sodipodi:type="arc"
           transform="matrix(0.28455592,0,0,0.30143676,54.742397,303.50437)" />
        <path
           sodipodi:nodetypes="ccccccccccsccccc"
           inkscape:connector-curvature="0"
           id="path3085"
           style="font-variant:normal;font-stretch:normal;fill:#b39a6a;fill-opacity:1;stroke:none;font-family:Liberation Sans;-inkscape-font-specification:Liberation Sans"
           d="m 104.33829,422.07744 c 0.87914,2e-5 1.54415,0.72138 1.99501,2.16408 0.90168,2.70512 2.26275,1.46945 2.64599,1.46943 0.29305,2e-5 1.60342,-1.59565 1.91904,-2.04651 8.20281,-10.60086 10.4708,-14.39112 15.8585,-20.65797 1.39759,-1.62302 3.61803,-2.43456 6.66131,-2.4346 0.72132,4e-5 1.20598,0.0677 1.454,0.20289 0.24792,0.13529 0.3719,0.30436 0.37194,0.5072 -4e-5,0.31564 -0.37199,0.93556 -1.11585,1.85976 -8.70145,10.45977 -16.77167,21.50559 -24.21067,33.13751 -0.5185,0.81154 -1.578,1.2173 -3.17849,1.2173 -1.62308,0 -2.54521,-0.4863 -3.16162,-0.96413 -0.6946,-0.68069 -1.38071,-1.30139 -2.41766,-4.41227 -1.172218,-3.44898 -1.758328,-5.61307 -1.75832,-6.49224 -8e-6,-0.94677 0.78898,-1.85974 2.36697,-2.73892 0.96931,-0.541 1.82593,-0.81151 2.56985,-0.81153" />
      </g>
      <g
         transform="scale(0.91871783,1.0884735)"
         style="font-size:112.51708984px;fill:#000000;font-family:Sans"
         id="text3087">
        <path
           d="m 152.85102,359.88985 c -4e-5,2.43427 -0.44908,4.51401 -1.34711,6.23925 -0.89811,1.72526 -2.10342,3.14326 -3.61593,4.25404 -1.51258,1.08714 -3.27327,1.89068 -5.28209,2.41062 -1.98524,0.4963 -4.08863,0.74445 -6.31015,0.74445 l -20.63206,0 0,-47.82242 18.6114,0 c 2.45786,4e-5 4.65577,0.2482 6.59375,0.74445 1.93791,0.47272 3.58044,1.20536 4.92758,2.19792 1.34708,0.99265 2.37513,2.24522 3.08418,3.75773 0.7326,1.51258 1.09892,3.2851 1.09896,5.31754 -4e-5,2.71789 -0.77995,5.01034 -2.33972,6.87735 -1.55985,1.84345 -3.95864,3.10783 -7.1964,3.79319 4.04129,0.42542 7.11364,1.63073 9.21706,3.61592 2.12698,1.98524 3.19049,4.60855 3.19053,7.86996 m -13.4002,-20.73841 c -3e-5,-2.05608 -0.53179,-3.50954 -1.59526,-4.36038 -1.06354,-0.8744 -2.50519,-1.31162 -4.32494,-1.31167 l -7.40911,0 0,11.30865 7.48001,0 c 1.91429,2e-5 3.36775,-0.47265 4.36039,-1.41802 0.99257,-0.94531 1.48888,-2.3515 1.48891,-4.21858 m 2.87147,19.85215 c -3e-5,-1.22892 -0.20092,-2.25698 -0.60265,-3.08417 -0.40181,-0.82715 -0.94538,-1.48889 -1.63072,-1.98521 -0.66176,-0.51992 -1.44167,-0.88624 -2.33971,-1.09896 -0.87447,-0.21268 -1.79618,-0.31903 -2.76513,-0.31905 l -8.86257,0 0,13.2584 9.11072,0 c 0.94532,10e-6 1.84339,-0.10635 2.69423,-0.31905 0.87441,-0.2127 1.63068,-0.5672 2.26881,-1.06351 0.66171,-0.51993 1.18165,-1.21712 1.55982,-2.09157 0.3781,-0.87443 0.56717,-1.97338 0.5672,-3.29688"
           style="font-variant:normal;font-weight:bold;font-stretch:normal;fill:#7ba29e;fill-opacity:1;stroke:none;font-family:Liberation Mono;-inkscape-font-specification:Liberation Mono Bold"
           id="path3092"
           inkscape:connector-curvature="0" />
        <path
           d="m 182.48745,366.80266 12.51395,0 0,6.73555 -36.47833,0 0,-6.73555 14.00285,0 0,-39.13711 -10.28057,0 0,-6.73555 20.2421,0 0,45.87266"
           style="font-variant:normal;font-weight:bold;font-stretch:normal;fill:#7ba29e;fill-opacity:1;stroke:none;font-family:Liberation Mono;-inkscape-font-specification:Liberation Mono Bold"
           id="path3094"
           inkscape:connector-curvature="0" />
        <path
           d="m 212.62018,335.18101 0,21.51832 c -1e-5,1.48893 0.11816,2.85967 0.35451,4.11223 0.23632,1.22896 0.60264,2.29246 1.09895,3.19052 0.4963,0.87445 1.12258,1.55982 1.87887,2.05612 0.77989,0.49631 1.70159,0.74446 2.76512,0.74446 1.01622,0 1.97338,-0.25996 2.87148,-0.77991 0.89805,-0.54356 1.67795,-1.29983 2.33971,-2.26882 0.66171,-0.99259 1.18165,-2.16245 1.55982,-3.50958 0.3781,-1.37072 0.56717,-2.87145 0.5672,-4.50218 l 0,-20.56116 9.96153,0 0,29.77823 c -4e-5,0.80355 -4e-5,1.65436 0,2.55242 0.0236,0.87445 0.0472,1.71344 0.0709,2.51697 0.0472,0.77991 0.0827,1.48891 0.10635,2.12702 0.0472,0.61447 0.0827,1.07532 0.10635,1.38256 l -9.50067,0 c -0.0237,-0.2836 -0.0709,-0.73264 -0.1418,-1.34711 -0.0473,-0.6381 -0.0946,-1.33529 -0.1418,-2.09157 -0.0237,-0.75627 -0.0591,-1.51254 -0.10636,-2.26881 -0.0237,-0.75627 -0.0355,-1.39437 -0.0354,-1.91432 l -0.17725,0 c -1.32351,2.90693 -2.97785,5.02213 -4.96304,6.3456 -1.98524,1.32348 -4.20678,1.98522 -6.66466,1.98522 -2.22156,0 -4.08861,-0.37814 -5.60113,-1.13441 -1.51256,-0.75627 -2.7415,-1.78433 -3.68683,-3.08418 -0.92172,-1.32347 -1.59527,-2.88328 -2.02067,-4.67943 -0.40177,-1.79614 -0.60266,-3.73409 -0.60266,-5.81385 l 0,-24.35434 9.96153,0"
           style="font-variant:normal;font-weight:bold;font-stretch:normal;fill:#7ba29e;fill-opacity:1;stroke:none;font-family:Liberation Mono;-inkscape-font-specification:Liberation Mono Bold"
           id="path3096"
           inkscape:connector-curvature="0" />
        <path
           d="m 263.59767,374.24722 c -2.76513,0 -5.29392,-0.40178 -7.58635,-1.20531 -2.29247,-0.82717 -4.25405,-2.06793 -5.88475,-3.72228 -1.63072,-1.67797 -2.90693,-3.76954 -3.82863,-6.2747 -0.89808,-2.52878 -1.34711,-5.48296 -1.34711,-8.86257 0,-3.66317 0.51993,-6.74734 1.55981,-9.25252 1.06351,-2.50513 2.4697,-4.52579 4.21859,-6.062 1.74887,-1.55978 3.74589,-2.68237 5.9911,-3.36778 2.26879,-0.68533 4.60851,-1.02802 7.01915,-1.02806 3.02507,4e-5 5.63657,0.5318 7.83451,1.59527 2.22152,1.03991 4.06493,2.50518 5.53024,4.39583 1.46524,1.89071 2.55239,4.15953 3.26143,6.80646 0.70897,2.62334 1.06346,5.53026 1.06351,8.72076 l 0,0.2836 -26.0205,0 c -2e-5,1.6071 0.17723,3.10783 0.53175,4.50219 0.37812,1.37076 0.92169,2.56425 1.63071,3.58048 0.73262,0.99261 1.64251,1.78434 2.72967,2.37517 1.08712,0.56721 2.35152,0.85081 3.79318,0.8508 1.74886,10e-6 3.29685,-0.36631 4.64399,-1.09896 1.34708,-0.75626 2.25697,-1.9143 2.72967,-3.47412 l 9.39432,0.81535 c -0.42544,1.08715 -1.06354,2.2452 -1.91431,3.47413 -0.82721,1.22895 -1.92617,2.36336 -3.29688,3.40323 -1.37078,1.01624 -3.04876,1.86705 -5.03394,2.55242 -1.9616,0.66173 -4.30132,0.99261 -7.01916,0.99261 m 0,-33.50052 c -1.01625,4e-5 -2.00886,0.17729 -2.97781,0.53176 -0.94537,0.3309 -1.79617,0.87447 -2.55242,1.63071 -0.73266,0.73267 -1.33531,1.68983 -1.80797,2.87147 -0.47269,1.1817 -0.73265,2.59972 -0.7799,4.25404 l 16.30712,0 c -0.0946,-1.53616 -0.37816,-2.88326 -0.85081,-4.04133 -0.44906,-1.15802 -1.0399,-2.12699 -1.77251,-2.90693 -0.70903,-0.77987 -1.54802,-1.35889 -2.51697,-1.73706 -0.94536,-0.40174 -1.96161,-0.60262 -3.04873,-0.60266"
           style="font-variant:normal;font-weight:bold;font-stretch:normal;fill:#7ba29e;fill-opacity:1;stroke:none;font-family:Liberation Mono;-inkscape-font-specification:Liberation Mono Bold"
           id="path3098"
           inkscape:connector-curvature="0" />
        <path
           d="m 325.42297,340.8176 c -5e-5,2.15068 -0.36637,4.19498 -1.09896,6.1329 -0.70905,1.91434 -1.80801,3.59232 -3.29688,5.03394 -1.48895,1.44166 -3.37963,2.58789 -5.67204,3.43868 -2.29248,0.82719 -5.01034,1.24077 -8.15357,1.24076 l -6.9837,0 0,16.87433 -10.45783,0 0,-47.82242 17.01613,0 c 3.1905,4e-5 5.95562,0.35455 8.29536,1.06351 2.33969,0.68541 4.27763,1.67802 5.81385,2.97782 1.53614,1.29989 2.67055,2.88333 3.40323,4.75033 0.75623,1.86709 1.13436,3.97047 1.13441,6.31015 m -10.52874,0.17726 c -3e-5,-2.57602 -0.77994,-4.40762 -2.33972,-5.4948 -1.5362,-1.11073 -3.85228,-1.66612 -6.94825,-1.66616 l -5.38844,0 0,14.78277 5.67204,0 c 3.1196,2e-5 5.40023,-0.63808 6.8419,-1.91432 1.44162,-1.29981 2.16244,-3.20231 2.16247,-5.70749"
           style="font-variant:normal;font-weight:bold;font-stretch:normal;fill:#7ba29e;fill-opacity:1;stroke:none;font-family:Liberation Mono;-inkscape-font-specification:Liberation Mono Bold"
           id="path3100"
           inkscape:connector-curvature="0" />
        <path
           d="m 362.69908,343.47638 c -1.11081,-0.18904 -2.28066,-0.34266 -3.50957,-0.46086 -1.20535,-0.14177 -2.54064,-0.21267 -4.00588,-0.2127 -1.98525,3e-5 -3.73413,0.4018 -5.24664,1.20531 -1.48894,0.80357 -2.74151,1.90253 -3.75773,3.29688 -0.99263,1.37076 -1.7489,2.97784 -2.26882,4.82124 -0.49632,1.84343 -0.74448,3.80501 -0.74446,5.88474 l 0,15.52722 -9.92607,0 0,-24.85064 c -1e-5,-1.32345 -0.0709,-2.67056 -0.2127,-4.04134 -0.14182,-1.37071 -0.30725,-2.65873 -0.49631,-3.86408 -0.18908,-1.2289 -0.38996,-2.32786 -0.60265,-3.29687 -0.21271,-0.96894 -0.38996,-1.73703 -0.53176,-2.30427 l 9.60703,0 c 0.14178,0.51998 0.2954,1.11081 0.46085,1.77251 0.16542,0.63815 0.31904,1.32352 0.46085,2.05612 0.14179,0.70904 0.27177,1.42986 0.38996,2.16247 0.14178,0.73267 0.24813,1.42986 0.31905,2.09156 l 0.1418,0 c 0.49628,-1.34708 1.07531,-2.5642 1.73706,-3.65138 0.68535,-1.0871 1.52435,-2.00881 2.51697,-2.76512 0.99259,-0.75623 2.17427,-1.33525 3.54503,-1.73706 1.37072,-0.42537 2.97779,-0.63807 4.82124,-0.63811 1.32344,4e-5 2.62328,0.0591 3.89953,0.17725 1.27617,0.11821 2.41058,0.26002 3.40322,0.42541 l 0,8.40172"
           style="font-variant:normal;font-weight:bold;font-stretch:normal;fill:#7ba29e;fill-opacity:1;stroke:none;font-family:Liberation Mono;-inkscape-font-specification:Liberation Mono Bold"
           id="path3102"
           inkscape:connector-curvature="0" />
        <path
           d="m 389.23386,366.80266 12.51395,0 0,6.73555 -36.47834,0 0,-6.73555 14.00286,0 0,-24.8861 -10.28058,0 0,-6.73555 20.24211,0 0,31.62165 m -9.96153,-38.53445 0,-7.33821 9.96153,0 0,7.33821 -9.96153,0"
           style="font-variant:normal;font-weight:bold;font-stretch:normal;fill:#7ba29e;fill-opacity:1;stroke:none;font-family:Liberation Mono;-inkscape-font-specification:Liberation Mono Bold"
           id="path3104"
           inkscape:connector-curvature="0" />
        <path
           d="m 433.83031,373.53821 0,-21.94372 c -3e-5,-3.3323 -0.46088,-5.77837 -1.38256,-7.33821 -0.8981,-1.55978 -2.45791,-2.33969 -4.67943,-2.33972 -1.20534,3e-5 -2.30429,0.27182 -3.29688,0.81536 -0.99263,0.51996 -1.84343,1.27624 -2.55242,2.26882 -0.70903,0.969 -1.26441,2.13886 -1.66616,3.50958 -0.40179,1.34713 -0.60267,2.83604 -0.60266,4.46673 l 0,20.56116 -9.96152,0 0,-29.77823 c -10e-6,-0.82715 -0.0118,-1.67795 -0.0354,-2.55242 0,-0.87441 -0.0236,-1.70158 -0.0709,-2.48152 -0.0236,-0.80351 -0.0473,-1.51251 -0.0709,-2.12702 -0.0236,-0.63807 -0.0591,-1.11073 -0.10635,-1.41801 l 9.50067,0 c 0.0472,0.28364 0.0945,0.74449 0.1418,1.38256 0.0472,0.61451 0.0945,1.29988 0.1418,2.05612 0.0472,0.75631 0.0827,1.51258 0.10635,2.26881 0.0472,0.75631 0.0709,1.39441 0.0709,1.91432 l 0.14181,0 c 1.34709,-2.93052 3.03689,-5.05754 5.06939,-6.38105 2.03246,-1.32344 4.45489,-1.98518 7.2673,-1.98522 2.07972,4e-5 3.86405,0.34273 5.35299,1.02806 1.51252,0.66178 2.75327,1.63075 3.72228,2.90692 0.96894,1.25262 1.67795,2.78879 2.12702,4.60854 0.47263,1.81981 0.70897,3.88774 0.709,6.2038 l 0,24.35434 -9.92607,0"
           style="font-variant:normal;font-weight:bold;font-stretch:normal;fill:#7ba29e;fill-opacity:1;stroke:none;font-family:Liberation Mono;-inkscape-font-specification:Liberation Mono Bold"
           id="path3106"
           inkscape:connector-curvature="0" />
        <path
           d="m 459.77992,341.91656 -5.9202,0 0,-6.73555 6.4165,0 3.11963,-9.99698 6.23925,0 0,9.99698 13.64835,0 0,6.73555 -13.64835,0 0,18.78865 c -3e-5,0.85082 0.0236,1.66617 0.0709,2.44607 0.0709,0.77992 0.2954,1.4771 0.67355,2.09156 0.40174,0.59085 1.01622,1.07534 1.84342,1.45347 0.85078,0.35451 2.04427,0.53176 3.58047,0.53175 1.51252,10e-6 3.02506,-0.0827 4.53764,-0.24815 1.51251,-0.16543 3.01324,-0.40176 4.50218,-0.70901 l 0,6.59376 c -0.87447,0.1418 -1.74891,0.2836 -2.62332,0.4254 -0.85084,0.1418 -1.73709,0.25997 -2.65877,0.3545 -0.8981,0.11817 -1.85526,0.20088 -2.87147,0.24815 -1.01627,0.0709 -2.12705,0.10635 -3.33232,0.10635 -2.03251,0 -3.78139,-0.16543 -5.24665,-0.4963 -1.46529,-0.3545 -2.70605,-0.82717 -3.72228,-1.41801 -0.99262,-0.59084 -1.80797,-1.28803 -2.44607,-2.09157 -0.61448,-0.80353 -1.08715,-1.65434 -1.41801,-2.55242 -0.33088,-0.9217 -0.55539,-1.87886 -0.67355,-2.87147 -0.0945,-0.9926 -0.14182,-1.97339 -0.1418,-2.94237 l 0.0709,-19.71036"
           style="font-variant:normal;font-weight:bold;font-stretch:normal;fill:#7ba29e;fill-opacity:1;stroke:none;font-family:Liberation Mono;-inkscape-font-specification:Liberation Mono Bold"
           id="path3108"
           inkscape:connector-curvature="0" />
        <g
           transform="matrix(0.87558863,0,0,0.47551263,253.27144,75.061715)"
           style="font-size:112.22692108px;font-style:italic;font-variant:normal;font-weight:normal;font-stretch:normal;line-height:125%;letter-spacing:0px;word-spacing:0px;fill:#b39a6a;fill-opacity:1;stroke:none;font-family:Liberation Serif;-inkscape-font-specification:Liberation Serif Italic"
           id="text3110">
          <path
             d="m 281.30493,628.34967 0.54798,-2.90431 11.89124,-1.47955 11.34324,-64.38801 -2.79471,0 c -2.37462,7e-5 -4.42042,0.0366 -6.13741,0.1096 -1.71703,0.0366 -3.19659,0.10966 -4.43866,0.21919 -1.24211,0.10967 -2.30155,0.23753 -3.1783,0.38359 -0.87679,0.10966 -1.66223,0.23753 -2.35633,0.38359 l -3.50709,11.45284 -3.67149,0 3.06871,-17.26146 58.63418,0 -3.0687,17.26146 -3.72629,0 0.54798,-11.45284 c -1.27868,-0.25566 -3.21489,-0.47485 -5.80862,-0.65758 -2.59384,-0.21913 -6.02786,-0.32872 -10.30208,-0.32879 l -2.68511,0 -11.34325,64.27841 11.45284,1.47955 -0.54798,2.90431 -33.92015,0"
             style="fill:#b39a6a;fill-opacity:1;font-family:Liberation Serif;-inkscape-font-specification:Liberation Serif Italic"
             id="path3115"
             inkscape:connector-curvature="0" />
          <path
             d="m 336.81561,609.71825 c -10e-6,4.93186 0.94983,8.71294 2.84951,11.34325 1.93619,2.59379 4.62131,3.89068 8.05535,3.89068 2.5207,0 4.93182,-0.74891 7.23338,-2.24673 2.33803,-1.53435 4.38383,-3.61668 6.13741,-6.24701 1.79004,-2.66684 3.21479,-5.8086 4.27427,-9.42531 1.09592,-3.65319 1.6439,-7.61693 1.64395,-11.89123 -5e-5,-5.04141 -0.96815,-8.85902 -2.90431,-11.45285 -1.89972,-2.63027 -4.63963,-3.94542 -8.21975,-3.94547 -2.48422,5e-5 -4.87707,0.74896 -7.17858,2.24673 -2.30155,1.49786 -4.32908,3.5802 -6.08261,6.247 -1.75356,2.63036 -3.16005,5.79039 -4.21947,9.48011 -1.05944,3.65325 -1.58916,7.65352 -1.58915,12.00083 m 10.41168,19.72739 c -2.95913,0 -5.68078,-0.49319 -8.16495,-1.47956 -2.44767,-0.98637 -4.56653,-2.41112 -6.3566,-4.27427 -1.75355,-1.86313 -3.12351,-4.12813 -4.10987,-6.79498 -0.94984,-2.66684 -1.42476,-5.68074 -1.42476,-9.04172 0,-4.27425 0.67584,-8.36585 2.02754,-12.27482 1.38822,-3.90891 3.34269,-7.34294 5.86342,-10.30208 2.55724,-2.9956 5.6442,-5.37019 9.26091,-7.12378 3.61666,-1.79003 7.69,-2.68507 12.22002,-2.68512 2.95907,5e-5 5.66245,0.49324 8.11015,1.47955 2.48415,0.98642 4.60301,2.41118 6.3566,4.27427 1.79003,1.86319 3.15999,4.12818 4.10987,6.79499 0.98632,2.66689 1.47951,5.68079 1.47956,9.04172 -5e-5,4.27429 -0.69416,8.3659 -2.08234,12.27482 -1.35174,3.90896 -3.30621,7.36125 -5.86341,10.35688 -2.52077,2.95911 -5.58947,5.3337 -9.20612,7.12378 -3.61672,1.75354 -7.69006,2.63032 -12.22002,2.63032"
             style="fill:#b39a6a;fill-opacity:1;font-family:Liberation Serif;-inkscape-font-specification:Liberation Serif Italic"
             id="path3117"
             inkscape:connector-curvature="0" />
          <path
             d="m 422.84895,576.78447 c 0.0365,-0.43834 0.10955,-1.05938 0.21919,-1.86314 0.10956,-0.84019 0.23742,-1.6987 0.38359,-2.57552 0.14609,-0.91325 0.27395,-1.79002 0.38359,-2.63032 0.14608,-0.84018 0.27395,-1.53429 0.38359,-2.08234 l 2.35632,-13.37078 -8.43893,-1.31516 0.43838,-2.46593 17.75465,0 -13.15159,74.03251 6.19221,1.36996 -0.43839,2.46592 -15.61752,0 1.58916,-8.54853 c -3.06874,3.21483 -6.00958,5.64422 -8.82253,7.28817 -2.813,1.60742 -5.51638,2.41112 -8.11015,2.41112 -2.19195,0 -4.18295,-0.42012 -5.97301,-1.26036 -1.79009,-0.84024 -3.32444,-2.0458 -4.60306,-3.61668 -1.27863,-1.60742 -2.28327,-3.56189 -3.01391,-5.86342 -0.69411,-2.30152 -1.04117,-4.8953 -1.04117,-7.78136 0,-3.14175 0.34706,-6.19219 1.04117,-9.15132 0.69411,-2.99561 1.68048,-5.80859 2.95911,-8.43894 1.27862,-2.63028 2.81297,-5.02313 4.60306,-7.17857 1.82659,-2.19189 3.87239,-4.0733 6.13741,-5.64423 2.26497,-1.60737 4.71263,-2.84946 7.34297,-3.72628 2.66682,-0.87672 5.46153,-1.31511 8.38414,-1.31516 1.82657,5e-5 3.47052,0.10965 4.93185,0.32879 1.49778,0.21924 2.86773,0.52977 4.10987,0.93157 m -1.26036,5.69902 c -1.27867,-0.84019 -2.59383,-1.49777 -3.94548,-1.97274 -1.35173,-0.47487 -2.99567,-0.71233 -4.93185,-0.71237 -1.97277,4e-5 -3.81764,0.42016 -5.53462,1.26036 -1.71704,0.84028 -3.30619,1.99105 -4.76746,3.45229 -1.46131,1.4248 -2.77646,3.10528 -3.94547,5.04144 -1.13252,1.93625 -2.10062,4.01858 -2.90431,6.24701 -0.80373,2.22849 -1.42477,4.53002 -1.86315,6.90459 -0.40186,2.37461 -0.60279,4.73094 -0.60278,7.06898 -1e-5,2.30154 0.25571,4.27428 0.76718,5.91821 0.51143,1.60743 1.16901,2.94085 1.97274,4.00028 0.84022,1.02291 1.79006,1.77182 2.84951,2.24673 1.09594,0.47492 2.21018,0.71238 3.34269,0.71238 2.04578,0 4.25598,-0.65758 6.6306,-1.97274 2.41109,-1.35168 4.73089,-3.23309 6.95938,-5.64423 l 5.97302,-32.55019"
             style="fill:#b39a6a;fill-opacity:1;font-family:Liberation Serif;-inkscape-font-specification:Liberation Serif Italic"
             id="path3119"
             inkscape:connector-curvature="0" />
          <path
             d="m 479.29119,624.51379 6.19221,1.36996 -0.43839,2.46592 -15.61752,0 1.58915,-8.54853 c -3.06873,3.21483 -6.00957,5.64422 -8.82252,7.28817 -2.813,1.60742 -5.51638,2.41112 -8.11015,2.41112 -2.08235,0 -4.01856,-0.38358 -5.80862,-1.15076 -1.79009,-0.80371 -3.34271,-1.97274 -4.65786,-3.50709 -1.31516,-1.53435 -2.35633,-3.43402 -3.1235,-5.69902 -0.73065,-2.30152 -1.09597,-4.9501 -1.09597,-7.94576 0,-3.14175 0.34706,-6.19218 1.04117,-9.15131 0.69411,-2.99562 1.68048,-5.80859 2.95911,-8.43894 1.31515,-2.66682 2.88603,-5.0962 4.71265,-7.28818 1.8266,-2.22842 3.8724,-4.12809 6.13741,-5.69902 2.26498,-1.60737 4.7309,-2.84946 7.39778,-3.72628 2.66682,-0.91326 5.46153,-1.36991 8.38414,-1.36996 2.41108,5e-5 4.62128,0.20098 6.63059,0.60278 2.04576,0.40191 4.00023,0.96815 5.86342,1.69875 0.10955,-0.073 0.23741,-0.16435 0.38359,-0.27399 0.10955,-0.073 0.23741,-0.16435 0.38358,-0.274 0.14609,-0.10954 0.31048,-0.2374 0.49319,-0.38358 0.36527,-0.25568 0.76713,-0.5662 1.20556,-0.93158 l 2.95911,0 -8.65813,48.5513 m -1.58915,-42.0303 c -0.69416,-0.47487 -1.35173,-0.87672 -1.97274,-1.20556 -0.62109,-0.32874 -1.27867,-0.60273 -1.97274,-0.82197 -0.65762,-0.21915 -1.36999,-0.36528 -2.13713,-0.43839 -0.73068,-0.10955 -1.57092,-0.16435 -2.52073,-0.1644 -3.06873,5e-5 -5.84518,0.91336 -8.32934,2.73992 -2.44768,1.79012 -4.53001,4.12818 -6.247,7.01418 -1.71703,2.84955 -3.03219,6.04611 -3.94548,9.5897 -0.91332,3.54365 -1.36997,7.06901 -1.36996,10.57608 -1e-5,2.30154 0.25571,4.27428 0.76718,5.91821 0.51143,1.60743 1.16901,2.94085 1.97274,4.00028 0.84022,1.02291 1.79006,1.77182 2.84951,2.24673 1.09594,0.47492 2.22844,0.71238 3.39749,0.71238 1.20554,0 2.4111,-0.20092 3.61669,-0.60278 1.20554,-0.43838 2.37456,-1.00463 3.50709,-1.69875 1.169,-0.73064 2.28323,-1.55261 3.3427,-2.46593 1.09593,-0.91329 2.11883,-1.86313 3.0687,-2.84951 l 5.97302,-32.55019"
             style="fill:#b39a6a;fill-opacity:1;font-family:Liberation Serif;-inkscape-font-specification:Liberation Serif Italic"
             id="path3121"
             inkscape:connector-curvature="0" />
          <path
             d="m 495.0183,576.83927 14.02837,0 7.94575,40.11235 12.8776,-22.24811 c 1.20553,-2.11883 2.0823,-4.05503 2.63032,-5.80862 0.58448,-1.79003 0.87673,-3.37918 0.87678,-4.76745 -5e-5,-1.35164 -0.38363,-2.42934 -1.15077,-3.2331 -0.76721,-0.80366 -1.58919,-1.33338 -2.46592,-1.58915 l 0.43838,-2.46592 10.41168,0 c 0.32874,0.29231 0.63927,0.74896 0.93157,1.36995 0.32874,0.6211 0.49314,1.31521 0.49319,2.08234 -5e-5,1.16908 -0.31058,2.72169 -0.93157,4.65786 -0.6211,1.89971 -1.82666,4.36563 -3.61669,7.39777 l -21.70013,36.55046 c -2.15542,3.65322 -4.20122,6.94111 -6.13741,9.8637 -1.89969,2.92256 -3.81763,5.40675 -5.75382,7.45257 -1.89969,2.04578 -3.90895,3.61666 -6.02781,4.71265 -2.08234,1.09594 -4.38387,1.64393 -6.90459,1.64395 -0.94983,-2e-5 -1.77181,-0.0183 -2.46592,-0.0548 -0.73064,-0.0366 -1.38822,-0.10962 -1.97274,-0.21919 -0.62104,-0.0731 -1.22382,-0.16442 -1.80835,-0.27399 -0.5845,-0.10962 -1.22382,-0.25575 -1.91794,-0.43839 l 2.02754,-11.12406 2.46592,0 0.87678,5.26064 c 0.9133,0.84022 2.41112,1.26034 4.49346,1.26036 1.57088,-2e-5 3.08696,-0.45667 4.54826,-1.36995 1.49781,-0.91333 2.9043,-2.10062 4.21947,-3.56189 1.35168,-1.42477 2.59377,-3.01392 3.72628,-4.76746 1.16902,-1.75355 2.21018,-3.45229 3.1235,-5.09624 l 2.46593,-4.49346 -10.02809,-47.01694 -6.13741,-1.36996 0.43838,-2.46592"
             style="fill:#b39a6a;fill-opacity:1;font-family:Liberation Serif;-inkscape-font-specification:Liberation Serif Italic"
             id="path3123"
             inkscape:connector-curvature="0" />
        </g>
      </g>
    </g>
    <flowRoot
       xml:space="preserve"
       id="flowRoot3076"
       style="font-size:144px;font-style:normal;font-weight:normal;line-height:125%;letter-spacing:0px;word-spacing:0px;fill:#000000;fill-opacity:1;stroke:none;font-family:Sans"><flowRegion
         id="flowRegion3078"><rect
           id="rect3080"
           width="7660"
           height="362.85715"
           x="-7391.4287"
           y="606.64789" /></flowRegion><flowPara
         id="flowPara3082"></flowPara></flowRoot>  </g>
</svg>
